<?xml version="1.0" encoding="UTF-8"?>
<!-- Created with Grafika (https://www.grafika.cc/) -->
<svg xmlns="http://www.w3.org/2000/svg" xmlns:svg="http://www.w3.org/2000/svg" xmlns:xlink="http://www.w3.org/1999/xlink" width="1080" height="1080" viewBox="0 0 1080 1080" preserveAspectRatio="xMidYMid meet">
	<rect x="0" y="0" width="1080" height="1080" fill="#FFFFFF" />
	<g opacity="1" transform="matrix(1, 0, 0, 1, 540, 540)">
		<g opacity="1" transform="matrix(1.8524870872497559, 0, 0, 1.8524872064590454, -540, -437.18695068359375)">
			<path d="M334.06,442 C329.64,439.28 323.5,437.36 321.67,431.52 C318.39,425.97 318,419.01 317.82,412.3 C316.45,405.55 313.74,399.24 309.29,393.72 C305.13,387.59 298.71,383.07 292.35,379.99 C285.01,376.17 276.4,375.79 267.95,375.94 C260.89,374.75 246.36,378.03 244.25,373.46 C247.22,369.2 248.81,363.69 250.18,358.43 C250.73,350.51 250.43,342.57 250.51,334.64 C263.55,335.04 276.72,334.3 289.65,335.78 C295.92,337.33 302.2,339.61 308.16,341.76 C310.59,342.35 318.69,349.01 318.28,343.31 C318.05,261.86 318.42,180.4 317.58,98.95 C317.25,92.52 314.7,86.38 312,80.85 C309.54,75.02 305.86,69.57 301.34,64.77 C297.52,59.28 291.24,55.82 286.09,52.04 C281.19,49.49 276.21,46.67 270.85,45.39 C259.67,41.6 247.31,43.34 235.56,42.79 C202.97,42.64 170.37,42.72 137.78,42.7 L137.78,221.47 C128.11,221.9 117.91,220.23 108.74,223.18 C104.59,221.93 94.95,234.09 96.22,226.2 C96.34,163.46 95.89,100.7 96.65,37.96 C97.13,31.96 100.06,27.09 102.48,21.76 C106.72,14.45 113.84,8.56 121.12,4.72 C127.26,2.11 134.23,0.53 141.18,0.35 C180.78,-0.23 220.41,-0.44 260,0.58 C268.21,2.45 276.81,3 284.67,5.98 C289.44,7.85 294.6,9.31 298.67,12.36 C304.08,13.9 308.4,17.64 313.13,20.5 C319.43,24.81 325.39,30.37 330.45,35.42 C334.03,40.87 341.08,49.22 345.18,39.26 C351.62,31.61 359.36,25.21 367.39,19.36 C371.98,16.33 376.69,13.84 381.41,11.39 C387.38,9.12 392.69,6.42 398.95,4.7 C406.11,2.29 414.11,1.7 421.54,0.46 C462,-0.28 502.5,-0.44 542.96,0.56 C549.32,2.06 556.07,2.75 561.16,6.55 C567.51,10.08 572.95,15.96 576.66,22.05 C579.63,26.83 580.81,32.38 582.44,37.7 C583.47,102 582.8,166.32 582.99,230.62 C582.83,266.81 583.28,303.02 582.44,339.2 C580.46,344.99 579.4,352.24 574.79,356.62 C571.18,362.45 565.32,367.47 559.7,370.64 C553.05,373.59 546.39,376.12 538.68,375.47 C491.35,376.26 444,375.36 396.68,376.56 C390.2,378.2 384.06,380.65 378.61,384.91 C373.33,388.13 368.75,394.15 366.08,399.67 C362.81,404.71 361.31,410.86 360.5,417.03 C360.75,423.81 359.32,429.95 355.52,435.16 C351.16,438.76 345.95,442.89 339.11,442.13 C337.43,442.16 335.73,442.24 334.06,442 ZM364.38,345.02 C369.9,342.4 375.96,339.89 381.87,337.77 C390.17,334.75 399.44,335.25 408.39,335.13 C452.19,334.55 496.01,335.43 539.79,334.16 C542.67,325.81 540.49,314.36 541.31,304.87 C541.54,217.48 541.4,130.09 541.44,42.7 C500.07,42.82 458.68,42.35 417.32,43.19 C409.89,44.57 402.68,46.23 396.45,50.36 C388.95,53.58 382.09,59.17 377.05,65.62 C372.37,70.37 368.99,76.44 366.49,82.3 C363.17,88.78 361.35,96.31 360.8,103.78 C360.08,184.38 360.5,264.99 360.39,345.59 C361.68,345.44 363.32,345.99 364.38,345.02 ZM123.55,441.24 C117.97,439.81 111.32,437.57 109.06,431.8 C103.65,423.01 105.93,411.78 105.34,401.68 C105.32,390.01 105.33,378.33 105.33,366.65 C86.35,366.48 67.34,367.12 48.39,366.08 C41.51,364.78 33.83,360.28 32.25,352.92 C28.69,345.04 32.45,335.34 39.46,330.78 C47.53,324.36 58.91,326.88 68.79,326.24 C80.97,326.22 93.15,326.24 105.33,326.23 C105.5,307.63 104.86,289 105.9,270.43 C106.98,263.73 111.65,257.13 118.14,254.49 C123.48,251.55 129.9,252.3 134.82,255.54 C143.01,259.77 145.97,268.95 145.6,277.55 C145.85,293.78 145.71,310 145.75,326.23 C164.35,326.4 182.98,325.76 201.54,326.8 C208.1,327.79 213.81,332.28 217.33,338.03 C220.11,344 219.83,350.29 216.63,356.04 C213.05,363.12 204.95,366.09 197.52,366.43 C180.27,366.81 163.01,366.6 145.75,366.65 C145.58,385.63 146.21,404.64 145.18,423.59 C143.75,429.16 141.51,435.81 135.75,438.07 C132.16,439.93 127.51,442.3 123.55,441.24 Z" opacity="1" style="fill:#000000;" />
		</g>
	</g>
</svg>