<?xml version="1.0" encoding="UTF-8"?>
<!-- Created with Grafika (https://www.grafika.cc/) -->
<svg xmlns="http://www.w3.org/2000/svg" xmlns:svg="http://www.w3.org/2000/svg" xmlns:xlink="http://www.w3.org/1999/xlink" width="1861.28" height="1052.57" viewBox="0 0 1861.28 1052.57" preserveAspectRatio="xMidYMid meet">
	<path transform="matrix(1.109323263168335, 0, 0, 1.109323263168335, 930.6420288085938, 526.283447265625)" d="M-425.67,473.6 C-458.69,462.89 -446.59,419.48 -449.5,392.39 L-449.5,356.16 L-548.11,354.86 C-582.43,339.11 -564.32,285.81 -527.21,292.92 C-501.32,291.93 -475.4,292.46 -449.5,292.31 C-448.06,258.65 -453.62,223.77 -444.1,191.19 C-431.07,165.05 -383.72,176.99 -386.82,205.61 L-385.65,292.31 C-352.69,293.46 -319,289.11 -286.68,296.54 C-258.06,306.37 -267.49,355.21 -295.6,354.97 L-385.65,356.21 L-386.95,454.15 C-394.8,467.86 -409.35,477.33 -425.67,473.6 ZM58.14,460.84 C23.19,451.38 -6.6,427.56 -38.31,410.33 C-66.73,399.83 -80.84,442.05 -107.66,446.93 C-149.99,462.87 -201.42,438.64 -216.62,396.24 C-233.95,399.43 -283.81,407.2 -246.68,387.44 C-218.25,367.79 -226.26,326.16 -194.33,310.13 C-174.75,286.92 -136.49,274.11 -136.34,239.56 C-147.87,195.77 -197.65,223.77 -216.25,246.53 C-226.57,251.1 -236.37,277.41 -246.85,261.87 C-251.65,245.79 -300.15,248.94 -281.76,235.48 C-261.13,209.44 -210.9,192.64 -220.01,153.13 C-240.24,109.85 -283.83,148.01 -304.48,169.96 C-320.08,180.92 -340.3,212.91 -341.52,175.35 C-348.55,157.21 -372.41,145.93 -343.67,134.66 C-315.13,107.59 -363.07,62.05 -389.2,91.96 C-410.67,124.25 -450.21,124.81 -476.27,149.83 C-494.54,154.96 -495.32,206.68 -502.52,198.3 C-512.02,175.33 -510.84,146.83 -498.15,125.18 C-519.64,89.89 -531.51,149.42 -560.71,129.31 C-635.15,93.14 -704.48,47.77 -776.74,7.72 C-796.23,-10.95 -853.63,-17.57 -835.4,-53.74 C-798.32,-118.7 -754.83,-179.98 -715.65,-243.75 C-669.81,-314.19 -625.81,-385.95 -578.94,-455.65 C-554.74,-490.09 -518.45,-450.01 -495.86,-434.47 C-435.31,-386.47 -372.65,-339.62 -312.39,-291.49 C-289.52,-286.98 -302.59,-248.04 -276.77,-258.36 C-203.97,-263.08 -131.31,-269.98 -59.2,-280.88 C-38.33,-285.87 -17.85,-262.84 1.05,-271.57 C26.66,-286.76 56.85,-296.72 86.3,-286.5 C144.64,-272.95 201.5,-236.63 263.31,-251.66 C299.32,-257.8 298.07,-303.62 333.19,-316.31 C361.33,-338.28 388.83,-360.31 417.82,-381.37 C450.29,-406.52 481.61,-432.72 515.37,-456.31 C540.71,-487.05 581.17,-476.68 593.29,-440.04 C673.26,-315.06 753.56,-190.26 832.93,-64.9 C845.77,-45.8 836.96,-28.94 816.37,-22.47 C790.44,-5.47 762.77,8.13 736.39,24.24 C688.15,50.7 641.59,81.54 591.99,105.82 C574.42,114.95 548.54,135.51 529.91,121.13 C516.08,114.05 510.88,75.77 496.34,84.24 L430.64,150.33 C430.1,179.55 420.65,211.5 392.81,225.7 C371.25,236.9 347.45,239.75 348.57,270.29 C340.02,304.78 306.7,323.79 272.82,325.63 C253,327.6 261.71,366.89 240.18,377.37 C218.98,400.91 183.28,403.95 154.55,399.23 C148.97,436.63 110.12,464.07 73.1,462.84 C68.12,462.11 63.13,461.48 58.14,460.84 ZM86.45,408.58 C122.53,390.14 94.41,348.79 66.52,339.53 C39.84,322.27 14.17,301.52 -13.09,285.95 C2.38,311.59 -11.66,344.17 -8.43,367.55 C16.92,379.34 37.32,399.08 64.25,407.94 C71.38,409.79 79.37,411.66 86.45,408.58 ZM-119.48,394.31 C-99.4,372.15 -63.71,359.27 -57.08,327.14 C-60.16,279.66 -114.6,296.8 -132.63,325.51 C-162.08,339.71 -187.13,391.15 -139.03,399.39 C-132.19,400.06 -125.12,398.27 -119.48,394.31 ZM195.24,346.94 C221.6,334.64 214.99,302.39 191.79,290.96 C156.08,265.67 121,241.12 85.49,215.41 C63.94,195.19 9.34,178.58 26.91,141.02 C54.97,115.85 80.98,151.28 103.8,164.23 C146.48,194 189.24,225.51 232.56,255.07 C248.83,270.61 278.38,284.71 295.08,259.19 C301.9,251.71 300.53,234.92 296.37,226.41 C269.86,199.46 236.91,181.56 207.33,158.07 C174.57,135.23 141.59,112.33 109.93,88.14 C76.85,49.99 124.31,30.27 163.21,62.09 C219.68,103.92 277.12,144.15 333.87,185.84 C363.41,193.52 392.75,163.87 371.6,136.14 C314.79,90.14 258.4,43.69 201.53,-2.44 C177.05,-23.18 151.74,-42.05 127.62,-63.13 C105.87,-70.48 88.39,-113.38 64.6,-99.69 C32.37,-86.82 2.83,-67.62 -30.66,-57.87 C-74.19,-52.82 -123.9,-57.01 -158.61,-86.34 C-179.95,-112.34 -192.06,-161.18 -160.69,-184.71 C-141.64,-199.48 -108.93,-208.86 -95.63,-223.42 C-162.64,-214.88 -230.58,-209.11 -298.39,-207.94 C-336.35,-214.19 -341.58,-166.46 -361.59,-143.69 C-383.39,-108.85 -404.64,-72.65 -427.06,-37.57 C-445.03,-6.76 -464.84,23.44 -483.07,54.03 C-496.03,74.25 -450.76,98.25 -440.93,68.15 C-414.3,40.87 -372.66,17.88 -335.04,37.03 C-298.92,37.19 -300.5,100.77 -265.08,82.18 C-217.61,72.89 -168.45,110.32 -165.75,158.44 C-148.51,170.29 -110.63,171.8 -98.75,199.38 C-79.52,217.04 -99.12,254.14 -63.7,247.53 C-48.85,249.3 -26.08,278.39 -29.73,246.12 C-9.44,203.82 29.17,255.91 54.03,266.5 C90.11,293.43 127.97,317.32 164.45,344.35 C173.67,349.39 185.42,351.78 195.24,346.94 ZM437.37,68.3 C460.49,50.42 482.79,26.57 453.48,2.08 C437.05,-24.76 421.07,-52.28 403.24,-78.87 C385.29,-111.16 364.32,-140.78 346.48,-173.48 C330.62,-184.61 328.17,-231.66 303.76,-211.6 C278.14,-199.87 250.75,-195.36 222.67,-197.34 C205.97,-196.44 189.45,-196.66 174.02,-203.94 C137.91,-215.44 102.4,-228.94 65.77,-238.62 C30.2,-237.05 2.45,-209.5 -29.56,-196.5 C-59.92,-180.12 -91.1,-164.95 -120.62,-147.21 C-140.86,-106.51 -75.27,-102.32 -48.97,-111.19 C-13.73,-121.59 20.11,-136.66 53.65,-151.71 C85.3,-179.16 111.07,-140.24 135.74,-123.99 C161.53,-101.25 189.44,-80.94 215.54,-58.44 C277.76,-6.53 341.77,42.77 403.13,95.54 C417.35,95.63 426.24,76.08 437.37,68.3 ZM-541.56,49.19 C-514.92,6.86 -489.95,-36.44 -462.38,-78.26 C-445.07,-111.33 -420.79,-142.66 -403.4,-176.82 C-385.45,-200.99 -372.35,-230.02 -354.27,-254.91 C-364.55,-271.62 -395.59,-287.49 -412.49,-304.18 C-450.47,-332.75 -489.19,-360.79 -524.01,-392.97 C-555.16,-431.11 -567.61,-374.63 -586.29,-353.13 C-649.8,-253.48 -713.8,-154.16 -777.5,-54.63 C-751.69,-37.04 -723.27,-22.68 -696.01,-6.67 C-665.3,9.07 -638.83,32.07 -606.93,45 C-581.56,52.37 -554.61,94.75 -541.56,49.19 ZM563.77,61.97 C608.58,35.71 655.26,12.46 699.19,-15.16 C719.93,-34.53 770.96,-41.74 771.22,-68.9 C697.73,-183.49 625.79,-299.11 550.65,-412.61 C526.97,-407.98 508.5,-381.56 486.43,-368.82 C450.08,-340.39 413.75,-313.24 377.9,-284.34 C349.86,-273.26 353.02,-251.35 371.5,-231.33 C401.94,-180.76 433.52,-131.37 463.87,-80.31 C487.1,-43.94 509.53,-6.46 532.65,30.2 C542.02,37.89 548.24,74.19 563.77,61.97 Z" opacity="1" style="fill:#000000;" />
</svg>